<?xml version="1.0" standalone="no"?>
<!DOCTYPE svg PUBLIC "-//W3C//DTD SVG 20010904//EN"
 "http://www.w3.org/TR/2001/REC-SVG-20010904/DTD/svg10.dtd">
<svg version="1.0" xmlns="http://www.w3.org/2000/svg"
 width="85.000000pt" height="138.000000pt" viewBox="0 0 85.000000 138.000000"
 preserveAspectRatio="xMidYMid meet">

<g transform="translate(0.000000,138.000000) scale(0.100000,-0.100000)"
fill="#000000" stroke="none">
<path d="M320 901 l0 -371 238 2 237 3 3 261 2 260 -227 103 c-126 57 -234
106 -240 108 -10 4 -13 -73 -13 -366z"/>
<path d="M90 869 c-58 -24 -60 -30 -60 -191 l0 -148 115 0 115 0 0 160 c0 151
-1 160 -21 170 -30 16 -120 22 -149 9z"/>
<path d="M327 464 c-13 -13 -8 -121 6 -132 7 -6 26 -10 41 -8 26 3 29 7 30 40
1 31 -2 36 -22 36 -19 0 -21 -4 -16 -25 4 -15 2 -25 -5 -25 -14 0 -15 86 -1
95 6 3 10 -1 10 -9 0 -9 9 -16 20 -16 16 0 18 4 11 23 -8 22 -58 36 -74 21z"/>
<path d="M420 401 c0 -64 2 -71 19 -71 15 0 21 8 24 33 l4 32 1 -31 c1 -18 9
-34 17 -38 12 -4 14 7 12 67 l-2 72 -37 3 -38 3 0 -70z m47 17 c-3 -7 -5 -2
-5 12 0 14 2 19 5 13 2 -7 2 -19 0 -25z"/>
<path d="M520 406 c0 -72 14 -92 55 -82 24 6 25 10 25 76 0 56 -3 70 -15 70
-12 0 -15 -13 -15 -60 0 -37 -4 -60 -11 -60 -7 0 -10 21 -7 60 3 52 1 60 -14
60 -15 0 -18 -10 -18 -64z"/>
<path d="M620 401 c0 -64 2 -71 20 -71 15 0 20 7 20 24 0 16 7 27 21 31 16 5
20 14 17 43 -3 35 -5 37 -40 40 l-38 3 0 -70z m47 17 c-3 -7 -5 -2 -5 12 0 14
2 19 5 13 2 -7 2 -19 0 -25z"/>
<path d="M722 458 c-7 -7 -12 -36 -12 -65 0 -41 4 -54 19 -63 44 -23 71 3 71
69 0 51 -12 71 -45 71 -12 0 -26 -5 -33 -12z m35 -85 c-2 -16 -4 -3 -4 27 0
30 2 43 4 28 2 -16 2 -40 0 -55z"/>
<path d="M348 279 c-27 -15 -22 -49 13 -85 19 -20 27 -34 20 -38 -6 -4 -11 0
-11 8 0 9 -9 16 -20 16 -27 0 -26 -36 1 -50 11 -7 32 -9 45 -6 35 9 34 69 -1
92 -14 9 -25 24 -25 33 1 14 2 14 11 -1 5 -10 17 -18 24 -18 22 0 18 38 -4 50
-24 12 -31 12 -53 -1z"/>
<path d="M468 283 c-22 -6 -30 -35 -26 -98 3 -44 6 -51 32 -60 24 -8 31 -6 47
14 26 32 26 104 -1 131 -20 20 -22 21 -52 13z m23 -81 c-4 -67 -11 -66 -11 3
0 32 3 55 7 51 4 -4 6 -28 4 -54z"/>
<path d="M569 269 c-18 -18 -21 -30 -17 -71 6 -63 27 -86 65 -72 36 12 47 64
14 64 -12 0 -21 -8 -24 -22 -2 -13 -4 4 -4 37 0 33 2 48 4 33 3 -20 10 -28 24
-28 27 0 27 55 0 70 -28 14 -38 13 -62 -11z"/>
<path d="M45 237 c16 -106 18 -111 50 -111 30 0 30 1 41 77 10 77 10 77 -13
77 -20 0 -23 -5 -24 -42 -1 -24 -3 -34 -6 -23 -2 11 -6 30 -9 43 -3 14 -12 22
-25 22 -18 0 -20 -4 -14 -43z"/>
<path d="M160 201 c0 -70 2 -79 18 -77 14 2 17 15 20 79 3 72 1 77 -18 77 -18
0 -20 -6 -20 -79z"/>
<path d="M220 206 c0 -54 4 -75 14 -79 20 -8 26 2 20 32 -5 18 -3 23 4 16 5
-5 12 -19 14 -29 1 -11 11 -20 21 -22 15 -2 17 7 17 77 0 64 -3 79 -15 79 -10
0 -15 -11 -16 -32 l-1 -33 -10 33 c-7 21 -17 32 -29 32 -17 0 -19 -9 -19 -74z"/>
<path d="M674 213 c-5 -37 -9 -72 -9 -77 0 -16 36 -15 42 1 5 14 7 14 14 0 7
-11 38 -17 45 -8 0 1 -5 34 -11 74 -10 71 -11 72 -42 75 l-31 3 -8 -68z m43
-20 c-3 -10 -5 -4 -5 12 0 17 2 24 5 18 2 -7 2 -21 0 -30z"/>
</g>
</svg>
